<?xml version="1.0" encoding="UTF-8" standalone="no"?>
<svg
   xmlns:dc="http://purl.org/dc/elements/1.1/"
   xmlns:cc="http://creativecommons.org/ns#"
   xmlns:rdf="http://www.w3.org/1999/02/22-rdf-syntax-ns#"
   xmlns:svg="http://www.w3.org/2000/svg"
   xmlns="http://www.w3.org/2000/svg"
   viewBox="0 0 816 169.36932"
   height="169.36932"
   width="816"
   xml:space="preserve"
   id="svg2"
   version="1.1"><metadata
     id="metadata8"><rdf:RDF><cc:Work
         rdf:about=""><dc:format>image/svg+xml</dc:format><dc:type
           rdf:resource="http://purl.org/dc/dcmitype/StillImage" /></cc:Work></rdf:RDF></metadata><defs
     id="defs6"><clipPath
       id="clipPath18"
       clipPathUnits="userSpaceOnUse"><path
         id="path16"
         d="M 0,127.027 H 612 V 0 H 0 Z" /></clipPath></defs><g
     transform="matrix(1.3333333,0,0,-1.3333333,0,169.36933)"
     id="g10"><g
       id="g12"><g
         clip-path="url(#clipPath18)"
         id="g14"><g
           transform="translate(492.1953,58.7344)"
           id="g20"><path
             id="path22"
             style="fill:#e31e2d;fill-opacity:1;fill-rule:nonzero;stroke:none"
             d="m 0,0 c 10.684,-3.806 15.216,-9.36 15.216,-9.36 0,0 5.56,14.332 19.017,10.166 0,0 -12.581,-8.995 -12.315,-17.646 0.251,-8.049 -6.117,-16.222 -25.132,-20.023 -8.067,-1.616 -10.476,-3.016 -10.606,-4.093 H 82.275 L 14.692,44.469 -20.291,-0.334 C -15.281,1.715 -8.291,2.954 0,0" /></g><g
           transform="translate(485.4678,40.8857)"
           id="g24"><path
             id="path26"
             style="fill:#e31e2d;fill-opacity:1;fill-rule:nonzero;stroke:none"
             d="m 0,0 c 2.604,10.854 -17.978,5.752 -25.6,2.099 l -19.686,-25.206 h 18.414 C -19.133,-17.987 -1.371,-5.709 0,0" /></g><g
           transform="translate(77.2705,47.0273)"
           id="g28"><path
             id="path30"
             style="fill:#0058a0;fill-opacity:1;fill-rule:nonzero;stroke:none"
             d="m 0,0 h -33.479 l -0.39,-1.678 h 33.482 z" /></g><g
           transform="translate(85.2827,81.7646)"
           id="g32"><path
             id="path34"
             style="fill:#0058a0;fill-opacity:1;fill-rule:nonzero;stroke:none"
             d="m 0,0 c 3.696,-0.188 6.371,-1.118 8.027,-2.789 1.657,-1.672 2.486,-4.291 2.486,-7.857 0,-5.486 -0.897,-11 -2.687,-16.537 -0.533,-1.647 -1.074,-3.071 -1.619,-4.383 h 32.361 c 2.7,6.618 4.136,13.427 4.136,20.467 0,10.706 -3.765,18.613 -11.287,23.721 -7.526,5.108 -19.22,7.662 -35.083,7.662 h -25.182 l -11.916,-51.85 h 33.482 z" /></g><g
           transform="translate(37.5288,19.7842)"
           id="g36"><path
             id="path38"
             style="fill:#0058a0;fill-opacity:1;fill-rule:nonzero;stroke:none"
             d="m 0,0 h 25.018 c 13.148,0 22.816,0.706 29.011,2.117 6.195,1.406 11.68,3.783 16.461,7.127 3.904,2.749 7.287,6.353 10.241,10.675 H 4.579 Z" /></g><g
           transform="translate(87.6538,43.7646)"
           id="g40"><path
             id="path42"
             style="fill:#0058a0;fill-opacity:1;fill-rule:nonzero;stroke:none"
             d="m 0,0 c -0.059,-0.056 -0.111,-0.148 -0.17,-0.198 -1,-0.948 -2.245,-1.678 -3.644,-2.279 h 35.55 c 0.486,0.774 0.91,1.654 1.368,2.477 z" /></g><g
           transform="translate(76.5181,43.7646)"
           id="g44"><path
             id="path46"
             style="fill:#0058a0;fill-opacity:1;fill-rule:nonzero;stroke:none"
             d="m 0,0 h -33.479 l -0.569,-2.477 H -0.57 Z" /></g><g
           transform="translate(121.6309,45.3496)"
           id="g48"><path
             id="path50"
             style="fill:#0058a0;fill-opacity:1;fill-rule:nonzero;stroke:none"
             d="M 0,0 C 0.251,0.477 0.533,0.904 0.771,1.399 0.817,1.492 0.845,1.585 0.889,1.678 H -31.655 C -31.983,1.077 -32.312,0.483 -32.646,0 Z" /></g><g
           transform="translate(125.3149,43.7646)"
           id="g52"><path
             id="path54"
             style="fill:#0058a0;fill-opacity:1;fill-rule:nonzero;stroke:none"
             d="M 0,0 -0.569,-2.477 H 32.609 L 33.194,0 Z" /></g><g
           transform="translate(119.8047,19.7842)"
           id="g56"><path
             id="path58"
             style="fill:#0058a0;fill-opacity:1;fill-rule:nonzero;stroke:none"
             d="m 0,0 h 58.917 l 4.588,19.919 H 4.579 Z" /></g><g
           transform="translate(158.8867,45.3496)"
           id="g60"><path
             id="path62"
             style="fill:#0058a0;fill-opacity:1;fill-rule:nonzero;stroke:none"
             d="M 0,0 0.399,1.678 H -32.819 L -33.209,0 Z" /></g><g
           transform="translate(160.5493,52.3525)"
           id="g64"><path
             id="path66"
             style="fill:#0058a0;fill-opacity:1;fill-rule:nonzero;stroke:none"
             d="m 0,0 h 23.225 l 4.322,19.27 H 4.322 l 2.526,10.48 h 25.671 l 4.563,19.946 h -58.92 l -11.916,-51.85 h 33.243 z" /></g><g
           transform="translate(187.542,43.7646)"
           id="g68"><path
             id="path70"
             style="fill:#0058a0;fill-opacity:1;fill-rule:nonzero;stroke:none"
             d="M 0,0 -0.57,-2.477 H 32.59 L 33.15,0 Z" /></g><g
           transform="translate(221.0483,45.3496)"
           id="g72"><path
             id="path74"
             style="fill:#0058a0;fill-opacity:1;fill-rule:nonzero;stroke:none"
             d="M 0,0 0.381,1.678 H -32.754 L -33.144,0 Z" /></g><g
           transform="translate(228.9707,65.4834)"
           id="g76"><path
             id="path78"
             style="fill:#0058a0;fill-opacity:1;fill-rule:nonzero;stroke:none"
             d="m 0,0 c -0.706,0 -1.303,0.006 -1.792,0.025 -0.49,0.018 -0.954,0.068 -1.387,0.142 L 0.979,18.365 H 2.69 c 3.747,0 6.601,-0.551 8.558,-1.659 1.956,-1.109 2.934,-2.756 2.934,-4.932 C 14.182,7.83 13,4.879 10.634,2.929 8.272,0.972 4.728,0 0,0 m 32.965,-10.115 c 8.393,5.502 12.591,13.382 12.591,23.638 0,8.111 -3.533,13.981 -10.594,17.606 -7.065,3.625 -18.557,5.436 -34.473,5.436 h -28.522 l -11.916,-51.85 h 61.431 c 4.369,1.312 8.21,3.021 11.483,5.17" /></g><g
           transform="translate(182.0313,19.7842)"
           id="g80"><path
             id="path82"
             style="fill:#0058a0;fill-opacity:1;fill-rule:nonzero;stroke:none"
             d="m 0,0 h 33.25 l 4.495,19.919 H 4.579 Z" /></g><g
           transform="translate(336.3613,45.3496)"
           id="g84"><path
             id="path86"
             style="fill:#0058a0;fill-opacity:1;fill-rule:nonzero;stroke:none"
             d="M 0,0 -0.684,1.678 H -30.932 L -30.554,0 Z" /></g><g
           transform="translate(302.3428,45.3496)"
           id="g88"><path
             id="path90"
             style="fill:#0058a0;fill-opacity:1;fill-rule:nonzero;stroke:none"
             d="M 0,0 0.381,1.678 H -32.751 L -33.141,0 Z" /></g><g
           transform="translate(306.166,43.7646)"
           id="g92"><path
             id="path94"
             style="fill:#0058a0;fill-opacity:1;fill-rule:nonzero;stroke:none"
             d="M 0,0 0.558,-2.477 H 31.849 L 30.84,0 Z" /></g><g
           transform="translate(311.5703,84.9751)"
           id="g96"><path
             id="path98"
             style="fill:#0058a0;fill-opacity:1;fill-rule:nonzero;stroke:none"
             d="m 0,0 c 0.328,0 0.749,0.019 1.263,0.059 0.516,0.034 0.885,0.056 1.102,0.056 3.638,0 6.327,-0.564 8.068,-1.691 1.737,-1.127 2.606,-2.873 2.606,-5.241 0,-4.13 -1.358,-7.294 -4.074,-9.492 -2.718,-2.198 -6.6,-3.297 -11.651,-3.297 h -1.795 z m -7.497,-31.948 0.641,-2.829 h 29.672 l -2.278,5.591 c 7.931,1.393 13.999,4.246 18.213,8.568 4.207,4.315 6.315,9.838 6.315,16.562 0,7.703 -3.328,13.149 -9.984,16.341 -6.656,3.194 -18.782,4.789 -36.386,4.789 h -28.031 l -11.916,-51.851 h 33.116 z" /></g><g
           transform="translate(263.3286,19.7842)"
           id="g100"><path
             id="path102"
             style="fill:#0058a0;fill-opacity:1;fill-rule:nonzero;stroke:none"
             d="m 0,0 h 33.25 l 4.492,19.919 H 4.579 Z" /></g><g
           transform="translate(338.6621,39.7031)"
           id="g104"><path
             id="path106"
             style="fill:#0058a0;fill-opacity:1;fill-rule:nonzero;stroke:none"
             d="m 0,0 h -31.58 l 4.488,-19.919 H 7.347 l 0.275,1.207 z" /></g><g
           transform="translate(268.8394,43.7646)"
           id="g108"><path
             id="path110"
             style="fill:#0058a0;fill-opacity:1;fill-rule:nonzero;stroke:none"
             d="M 0,0 -0.57,-2.477 H 32.587 L 33.147,0 Z" /></g><g
           transform="translate(351.4941,43.7646)"
           id="g112"><path
             id="path114"
             style="fill:#0058a0;fill-opacity:1;fill-rule:nonzero;stroke:none"
             d="M 0,0 -0.563,-2.477 H 32.624 L 33.194,0 Z" /></g><g
           transform="translate(385.0508,45.3496)"
           id="g116"><path
             id="path118"
             style="fill:#0058a0;fill-opacity:1;fill-rule:nonzero;stroke:none"
             d="M 0,0 0.387,1.678 H -32.808 L -33.191,0 Z" /></g><g
           transform="translate(346.2842,20.9912)"
           id="g120"><path
             id="path122"
             style="fill:#0058a0;fill-opacity:1;fill-rule:nonzero;stroke:none"
             d="m 0,0 0.492,-1.207 h 32.402 l 4.575,19.919 H 4.281 Z" /></g><g
           transform="translate(398.0811,102.0488)"
           id="g124"><path
             id="path126"
             style="fill:#0058a0;fill-opacity:1;fill-rule:nonzero;stroke:none"
             d="m 0,0 h -33.247 l -11.866,-51.851 h 33.197 z" /></g><g
           transform="translate(346.0088,19.7842)"
           id="g128"><path
             id="path130"
             style="fill:#0058a0;fill-opacity:1;fill-rule:nonzero;stroke:none"
             d="M 0,0 H 0.768 L 0.275,1.207 Z" /></g><g
           transform="translate(452.8125,56.749)"
           id="g132"><path
             id="path134"
             style="fill:#0058a0;fill-opacity:1;fill-rule:nonzero;stroke:none"
             d="m 0,0 c -1.953,3.004 -6.027,6.611 -12.226,10.815 -0.433,0.304 -1.031,0.715 -1.789,1.242 -6.142,4.207 -9.211,7.476 -9.211,9.804 0,1.727 0.803,3.09 2.407,4.087 1.6,0.993 3.789,1.492 6.556,1.492 3.099,0 6.347,-0.452 9.74,-1.353 3.396,-0.901 6.885,-2.217 10.473,-3.944 l 4.728,20.058 c -4.675,1.616 -9.263,2.808 -13.774,3.579 -4.51,0.767 -9.265,1.155 -14.262,1.155 -12.334,0 -22.099,-2.31 -29.296,-6.932 -7.199,-4.619 -10.796,-10.854 -10.796,-18.705 0,-3.492 1.059,-6.688 3.177,-9.579 2.117,-2.891 6.002,-6.235 11.652,-10.031 4.675,-3.076 7.827,-5.545 9.455,-7.41 0.241,-0.272 0.428,-0.55 0.635,-0.829 H 2.548 C 2.105,-4.174 1.285,-1.976 0,0" /></g><g
           transform="translate(411.251,38.3779)"
           id="g136"><path
             id="path138"
             style="fill:#0058a0;fill-opacity:1;fill-rule:nonzero;stroke:none"
             d="m 0,0 c -3.227,0 -6.585,0.458 -10.056,1.325 h -14.742 l -4.294,-16.365 c 3.532,-1.69 7.891,-3.016 13.079,-3.975 5.19,-0.96 10.688,-1.436 16.501,-1.436 13.638,0 24.381,2.538 32.232,7.609 5.759,3.715 9.384,8.446 10.919,14.167 H 6.816 C 5.003,0.458 2.749,0 0,0" /></g><g
           transform="translate(387.5176,43.7646)"
           id="g140"><path
             id="path142"
             style="fill:#0058a0;fill-opacity:1;fill-rule:nonzero;stroke:none"
             d="M 0,0 -0.65,-2.477 H 8.474 C 6.539,-1.765 4.644,-0.947 2.799,0 Z" /></g><g
           transform="translate(420.4297,41.2881)"
           id="g144"><path
             id="path146"
             style="fill:#0058a0;fill-opacity:1;fill-rule:nonzero;stroke:none"
             d="m 0,0 h 34.801 c 0.158,0.811 0.291,1.628 0.371,2.477 H 1.434 C 1.18,1.542 0.709,0.718 0,0" /></g><g
           transform="translate(422.0918,45.4238)"
           id="g148"><path
             id="path150"
             style="fill:#0058a0;fill-opacity:1;fill-rule:nonzero;stroke:none"
             d="M 0,0 C 0,-0.024 -0.009,-0.05 -0.012,-0.074 H 33.6 c 0.009,0.328 0.055,0.644 0.055,0.978 0,0.242 -0.037,0.464 -0.046,0.7 H -0.22 C -0.086,1.071 0,0.532 0,0" /></g><g
           transform="translate(83.8398,41.2881)"
           id="g152"><path
             id="path154"
             style="fill:#ebf7fc;fill-opacity:1;fill-rule:nonzero;stroke:none"
             d="m 0,0 c -0.272,-0.118 -0.508,-0.267 -0.799,-0.372 -1.764,-0.638 -3.625,-0.959 -5.578,-0.959 -0.49,0 -0.858,0.012 -1.102,0.03 -0.245,0.019 -0.478,0.044 -0.694,0.081 L -7.892,0 H -41.37 l -0.362,-1.585 H 34.42 c 0.368,0.538 0.774,1.022 1.13,1.585 z" /></g><g
           transform="translate(157.8618,41.0283)"
           id="g156"><path
             id="path158"
             style="fill:#ebf7fc;fill-opacity:1;fill-rule:nonzero;stroke:none"
             d="m 0,0 0.062,0.26 h -33.178 l -0.363,-1.585 H 25.448 L 25.751,0 Z" /></g><g
           transform="translate(186.9722,41.2881)"
           id="g160"><path
             id="path162"
             style="fill:#ebf7fc;fill-opacity:1;fill-rule:nonzero;stroke:none"
             d="M 0,0 -0.362,-1.585 H 32.804 L 33.16,0 Z" /></g><g
           transform="translate(338.0146,41.2881)"
           id="g164"><path
             id="path166"
             style="fill:#ebf7fc;fill-opacity:1;fill-rule:nonzero;stroke:none"
             d="m 0,0 h -31.291 l 0.358,-1.585 h 31.58 z" /></g><g
           transform="translate(268.2695,41.2881)"
           id="g168"><path
             id="path170"
             style="fill:#ebf7fc;fill-opacity:1;fill-rule:nonzero;stroke:none"
             d="M 0,0 -0.362,-1.585 H 32.801 L 33.157,0 Z" /></g><g
           transform="translate(350.9307,41.2881)"
           id="g172"><path
             id="path174"
             style="fill:#ebf7fc;fill-opacity:1;fill-rule:nonzero;stroke:none"
             d="M 0,0 -0.365,-1.585 H 32.822 L 33.188,0 Z" /></g><g
           transform="translate(399.5176,40.1299)"
           id="g176"><path
             id="path178"
             style="fill:#ebf7fc;fill-opacity:1;fill-rule:nonzero;stroke:none"
             d="m 0,0 c -1.195,0.341 -2.365,0.737 -3.526,1.158 h -9.124 l -0.414,-1.585 H 1.678 C 1.12,-0.284 0.563,-0.161 0,0" /></g><g
           transform="translate(419.1572,40.2666)"
           id="g180"><path
             id="path182"
             style="fill:#ebf7fc;fill-opacity:1;fill-rule:nonzero;stroke:none"
             d="m 0,0 c -0.334,-0.211 -0.718,-0.384 -1.09,-0.563 h 36.822 c 0.14,0.519 0.236,1.052 0.341,1.584 H 1.272 C 0.907,0.656 0.483,0.315 0,0" /></g><g
           transform="translate(76.8833,45.3496)"
           id="g184"><path
             id="path186"
             style="fill:#ebf7fc;fill-opacity:1;fill-rule:nonzero;stroke:none"
             d="m 0,0 h -33.481 l -0.363,-1.585 h 33.479 z" /></g><g
           transform="translate(88.9854,45.3496)"
           id="g188"><path
             id="path190"
             style="fill:#ebf7fc;fill-opacity:1;fill-rule:nonzero;stroke:none"
             d="m 0,0 c -0.44,-0.638 -0.886,-1.151 -1.332,-1.585 h 33.104 c 0.295,0.521 0.592,1.04 0.874,1.585 z" /></g><g
           transform="translate(125.6772,45.3496)"
           id="g192"><path
             id="path194"
             style="fill:#ebf7fc;fill-opacity:1;fill-rule:nonzero;stroke:none"
             d="M 0,0 -0.362,-1.585 H 32.832 L 33.209,0 Z" /></g><g
           transform="translate(187.9043,45.3496)"
           id="g196"><path
             id="path198"
             style="fill:#ebf7fc;fill-opacity:1;fill-rule:nonzero;stroke:none"
             d="m 0,0 -0.362,-1.585 h 33.15 L 33.144,0 Z" /></g><g
           transform="translate(269.2017,45.3496)"
           id="g200"><path
             id="path202"
             style="fill:#ebf7fc;fill-opacity:1;fill-rule:nonzero;stroke:none"
             d="M 0,0 -0.362,-1.585 H 32.785 L 33.141,0 Z" /></g><g
           transform="translate(305.8071,45.3496)"
           id="g204"><path
             id="path206"
             style="fill:#ebf7fc;fill-opacity:1;fill-rule:nonzero;stroke:none"
             d="m 0,0 0.359,-1.585 h 30.84 L 30.554,0 Z" /></g><g
           transform="translate(351.4941,43.7646)"
           id="g208"><path
             id="path210"
             style="fill:#ebf7fc;fill-opacity:1;fill-rule:nonzero;stroke:none"
             d="m 0,0 h 33.194 l 0.363,1.585 H 0.365 Z" /></g><g
           transform="translate(387.8643,45.083)"
           id="g212"><path
             id="path214"
             style="fill:#ebf7fc;fill-opacity:1;fill-rule:nonzero;stroke:none"
             d="M 0,0 -0.347,-1.318 H 2.452 C 1.626,-0.897 0.805,-0.464 0,0" /></g><g
           transform="translate(421.8633,43.7646)"
           id="g216"><path
             id="path218"
             style="fill:#ebf7fc;fill-opacity:1;fill-rule:nonzero;stroke:none"
             d="m 0,0 h 33.738 c 0.047,0.521 0.072,1.046 0.09,1.585 H 0.217 C 0.211,1.021 0.136,0.495 0,0" /></g><g
           transform="translate(78.001,50.1982)"
           id="g220"><path
             id="path222"
             style="fill:#ebf7fc;fill-opacity:1;fill-rule:nonzero;stroke:none"
             d="m 0,0 h -33.482 l -0.727,-3.171 H -0.73 Z" /></g><g
           transform="translate(89.9756,47.0273)"
           id="g224"><path
             id="path226"
             style="fill:#ebf7fc;fill-opacity:1;fill-rule:nonzero;stroke:none"
             d="m 0,0 h 32.544 c 0.501,1.047 0.901,2.111 1.331,3.171 H 1.514 C 1.016,1.976 0.511,0.929 0,0" /></g><g
           transform="translate(159.2861,47.0273)"
           id="g228"><path
             id="path230"
             style="fill:#ebf7fc;fill-opacity:1;fill-rule:nonzero;stroke:none"
             d="M 0,0 0.752,3.171 H -32.491 L -33.219,0 Z" /></g><g
           transform="translate(221.4292,47.0273)"
           id="g232"><path
             id="path234"
             style="fill:#ebf7fc;fill-opacity:1;fill-rule:nonzero;stroke:none"
             d="m 0,0 0.046,0.198 c 0.49,0 1.233,-0.018 2.239,-0.055 1.006,-0.038 1.752,-0.056 2.241,-0.056 9.511,0 17.662,1.034 24.498,3.084 H -32.407 L -33.135,0 Z" /></g><g
           transform="translate(302.7236,47.0273)"
           id="g236"><path
             id="path238"
             style="fill:#ebf7fc;fill-opacity:1;fill-rule:nonzero;stroke:none"
             d="M 0,0 0.712,3.171 H -32.404 L -33.132,0 Z" /></g><g
           transform="translate(305.4292,47.0273)"
           id="g240"><path
             id="path242"
             style="fill:#ebf7fc;fill-opacity:1;fill-rule:nonzero;stroke:none"
             d="M 0,0 H 30.249 L 28.958,3.171 H -0.715 Z" /></g><g
           transform="translate(385.4375,47.0273)"
           id="g244"><path
             id="path246"
             style="fill:#ebf7fc;fill-opacity:1;fill-rule:nonzero;stroke:none"
             d="M 0,0 0.728,3.171 H -32.47 L -33.194,0 Z" /></g><g
           transform="translate(420.2813,50.1982)"
           id="g248"><path
             id="path250"
             style="fill:#ebf7fc;fill-opacity:1;fill-rule:nonzero;stroke:none"
             d="M 0,0 C 0.786,-1.053 1.328,-2.111 1.591,-3.171 H 35.42 C 35.389,-2.074 35.268,-1.022 35.079,0 Z" /></g></g></g></g></svg>